<?xml version="1.0" encoding="utf-8"?>
<!-- Generator: Adobe Illustrator 26.0.1, SVG Export Plug-In . SVG Version: 6.00 Build 0)  -->
<svg version="1.1" id="Layer_1" xmlns="http://www.w3.org/2000/svg" xmlns:xlink="http://www.w3.org/1999/xlink" x="0px" y="0px"
	 viewBox="0 0 28 23" style="enable-background:new 0 0 28 23;" xml:space="preserve">
<style type="text/css">
	.st0{clip-path:url(#SVGID_00000016051818620119804120000011760927597290480268_);}
	.st1{fill:#2091F9;}
</style>
<g>
	<g>
		<defs>
			<rect id="SVGID_1_" x="0.5" y="0.2" width="27" height="22"/>
		</defs>
		<clipPath id="SVGID_00000170958422924601039740000013068628984541494916_">
			<use xlink:href="#SVGID_1_"  style="overflow:visible;"/>
		</clipPath>
		<g style="clip-path:url(#SVGID_00000170958422924601039740000013068628984541494916_);">
			<path class="st1" d="M25.8,0.9H1.4c-0.5,0-0.9,0.4-0.9,0.9v18.8c0,0.5,0.4,0.9,0.9,0.9h24.4c0.5,0,0.9-0.4,0.9-0.9V1.8
				C26.8,1.3,26.3,0.9,25.8,0.9z M24.6,4.2v15.3h-22V4.2L1.8,3.5L3,2l1.3,1H23l1.3-1l1.2,1.5L24.6,4.2z M23,3l-9.4,7.3L4.2,3L2.9,2
				L1.8,3.5l0.8,0.6l10,7.8c0.3,0.2,0.6,0.3,1,0.3s0.7-0.1,1-0.3l10-7.8l0.8-0.6L24.3,2L23,3z"/>
		</g>
	</g>
</g>
</svg>
